<svg width="237" height="89" viewBox="0 0 237 89" fill="none" xmlns="http://www.w3.org/2000/svg">
<path d="M0.800781 58.9453V58.1328L3.24609 54.3438H4.51172V58.1094H5.25391V58.9453H4.51172V60H3.54297V58.9453H0.800781ZM1.83984 58.1094H3.55859V55.5H3.49609L1.83984 58.0703V58.1094ZM8.12109 60.0781C6.91016 60.0781 6.05078 59.4219 6.02734 58.4688H7.05078C7.08203 58.9219 7.53516 59.2188 8.12109 59.2188C8.74609 59.2188 9.19141 58.875 9.19141 58.375C9.19141 57.8672 8.75391 57.5 8.01953 57.5H7.51172V56.7188H8.01953C8.62109 56.7188 9.04297 56.3828 9.03516 55.8906C9.04297 55.4141 8.68359 55.0938 8.12891 55.0938C7.59766 55.0938 7.13672 55.3906 7.12109 55.8672H6.14453C6.16797 54.9141 7.02734 54.2656 8.13672 54.2656C9.28516 54.2656 10.0273 54.9688 10.0195 55.8359C10.0273 56.4688 9.60547 56.9297 8.98828 57.0547V57.1016C9.78516 57.2109 10.2383 57.7188 10.2305 58.4297C10.2383 59.3828 9.34766 60.0781 8.12109 60.0781ZM16.8008 53.6328V57.7344H15.9336V56.0234H14.7148V55.3125H15.9336V53.6328H16.8008ZM16.8008 58.0391V60.6094H12.1055V58.0391H16.8008ZM12.9727 58.7266V59.9062H15.9492V58.7266H12.9727ZM13.4805 54.7969C13.4805 55.6484 14.0508 56.5156 15.1445 56.8906L14.707 57.5781C13.918 57.3086 13.3594 56.7734 13.0508 56.1094C12.7383 56.8438 12.1484 57.4336 11.3164 57.7109L10.8711 57.0312C11.9961 56.6562 12.5977 55.7266 12.5977 54.7891V54.7344H11.1289V54.0312H14.9414V54.7344H13.4805V54.7969Z" fill="black"/>
<path d="M3.52734 19.0781C2.39453 19.0781 1.56641 18.4062 1.53516 17.4688H2.52734C2.55859 17.9297 2.98828 18.2578 3.52734 18.2578C4.16016 18.2578 4.61328 17.7969 4.61328 17.1719C4.61328 16.5234 4.14453 16.0625 3.49609 16.0625C3.05859 16.0547 2.73828 16.2109 2.55859 16.5469H1.61328L1.95703 13.3438H5.30078V14.1953H2.79297L2.62109 15.6953H2.67578C2.89453 15.4453 3.30859 15.2656 3.76953 15.2656C4.82422 15.2656 5.59766 16.0547 5.59766 17.1406C5.59766 18.2734 4.74609 19.0781 3.52734 19.0781ZM8.51172 19.0781C7.25391 19.0781 6.36328 18.4062 6.36328 17.4844C6.36328 16.7656 6.89453 16.1797 7.57422 16.0703V16.0391C6.98047 15.9141 6.57422 15.3984 6.57422 14.7812C6.57422 13.9062 7.39453 13.2656 8.51172 13.2656C9.62109 13.2656 10.4414 13.9062 10.4414 14.7812C10.4414 15.3984 10.0273 15.9141 9.44141 16.0391V16.0703C10.1211 16.1797 10.6602 16.7656 10.6602 17.4844C10.6602 18.4062 9.76172 19.0781 8.51172 19.0781ZM8.51172 18.2734C9.17578 18.2734 9.61328 17.9141 9.61328 17.3906C9.61328 16.8594 9.14453 16.4688 8.51172 16.4688C7.87109 16.4688 7.40234 16.8594 7.41016 17.3906C7.40234 17.9141 7.83984 18.2734 8.51172 18.2734ZM8.51172 15.7109C9.05859 15.7109 9.44922 15.3672 9.44922 14.875C9.44922 14.3984 9.06641 14.0625 8.51172 14.0625C7.94922 14.0625 7.56641 14.3906 7.56641 14.875C7.56641 15.3672 7.95703 15.7109 8.51172 15.7109ZM17.1836 12.6328V16.7344H16.3164V15.0234H15.0977V14.3125H16.3164V12.6328H17.1836ZM17.1836 17.0391V19.6094H12.4883V17.0391H17.1836ZM13.3555 17.7266V18.9062H16.332V17.7266H13.3555ZM13.8633 13.7969C13.8633 14.6484 14.4336 15.5156 15.5273 15.8906L15.0898 16.5781C14.3008 16.3086 13.7422 15.7734 13.4336 15.1094C13.1211 15.8438 12.5312 16.4336 11.6992 16.7109L11.2539 16.0312C12.3789 15.6562 12.9805 14.7266 12.9805 13.7891V13.7344H11.5117V13.0312H15.3242V13.7344H13.8633V13.7969Z" fill="black"/>
<path d="M71.5 57.5H23" stroke="#C9C9C9" stroke-width="0.6" stroke-dasharray="1.2 1.2"/>
<path d="M181 16H23" stroke="#C9C9C9" stroke-width="0.6" stroke-dasharray="1.2 1.2"/>
<path d="M23 0V88H237" stroke="#C9C9C9" stroke-width="0.6"/>
<path d="M77 57L194 16" stroke="#C9C9C9" stroke-width="0.6"/>
<circle cx="193.5" cy="15.5" r="8.5" fill="#D9D9D9"/>
<circle cx="77" cy="57" r="3" fill="#D9D9D9"/>
<path d="M63.6338 69L63.6279 68.6133L65.0752 67.0898C65.5791 66.5566 65.8193 66.2695 65.8193 65.877C65.8193 65.4434 65.4502 65.1562 64.9756 65.1562C64.4717 65.1562 64.1494 65.4785 64.1494 65.9531H63.6514C63.6455 65.2031 64.2256 64.6992 64.9932 64.6992C65.7607 64.6992 66.3115 65.2148 66.3115 65.877C66.3115 66.3516 66.0889 66.7207 65.3389 67.4941L64.3662 68.4961V68.5312H66.3877V69H63.6338ZM68.5439 69.0586C67.6006 69.0586 67.0615 68.2676 67.0615 66.8789C67.0615 65.502 67.6123 64.6992 68.5439 64.6992C69.4756 64.6992 70.0264 65.502 70.0264 66.8789C70.0264 68.2676 69.4814 69.0586 68.5439 69.0586ZM68.5439 68.5898C69.1533 68.5898 69.5107 67.9746 69.5107 66.8789C69.5107 65.7832 69.1533 65.1562 68.5439 65.1562C67.9346 65.1562 67.5713 65.7832 67.5713 66.8789C67.5713 67.9746 67.9287 68.5898 68.5439 68.5898ZM70.7295 69L70.7236 68.6133L72.1709 67.0898C72.6748 66.5566 72.915 66.2695 72.915 65.877C72.915 65.4434 72.5459 65.1562 72.0713 65.1562C71.5674 65.1562 71.2451 65.4785 71.2451 65.9531H70.7471C70.7412 65.2031 71.3213 64.6992 72.0889 64.6992C72.8564 64.6992 73.4072 65.2148 73.4072 65.877C73.4072 66.3516 73.1846 66.7207 72.4346 67.4941L71.4619 68.4961V68.5312H73.4834V69H70.7295ZM75.6338 69.0586C74.8662 69.0586 74.2861 68.584 74.2568 67.9336H74.7666C74.8076 68.3145 75.1768 68.5957 75.6338 68.5957C76.1846 68.5957 76.583 68.1914 76.583 67.6582C76.583 67.1074 76.167 66.7031 75.5986 66.6973C75.2412 66.6914 74.9658 66.8027 74.8076 67.0781H74.2979L74.5967 64.7578H76.8936V65.2266H75.0361L74.8779 66.4688H74.9189C75.1064 66.3223 75.3936 66.2227 75.6924 66.2227C76.501 66.2227 77.0986 66.8203 77.0986 67.6465C77.0986 68.4668 76.4775 69.0586 75.6338 69.0586ZM78.0361 69.0352C77.8311 69.0352 77.6553 68.8652 77.6611 68.6543C77.6553 68.4492 77.8311 68.2793 78.0361 68.2793C78.2412 68.2793 78.4111 68.4492 78.4111 68.6543C78.4111 68.8652 78.2412 69.0352 78.0361 69.0352ZM80.4326 69.0586C79.4893 69.0586 78.9502 68.2676 78.9502 66.8789C78.9502 65.502 79.501 64.6992 80.4326 64.6992C81.3643 64.6992 81.915 65.502 81.915 66.8789C81.915 68.2676 81.3701 69.0586 80.4326 69.0586ZM80.4326 68.5898C81.042 68.5898 81.3994 67.9746 81.3994 66.8789C81.3994 65.7832 81.042 65.1562 80.4326 65.1562C79.8232 65.1562 79.46 65.7832 79.46 66.8789C79.46 67.9746 79.8174 68.5898 80.4326 68.5898ZM84.1182 64.7578V69H83.585V65.3086H83.5615L82.5303 65.9941V65.4609L83.585 64.7578H84.1182ZM85.3604 69.0352C85.1553 69.0352 84.9795 68.8652 84.9854 68.6543C84.9795 68.4492 85.1553 68.2793 85.3604 68.2793C85.5654 68.2793 85.7354 68.4492 85.7354 68.6543C85.7354 68.8652 85.5654 69.0352 85.3604 69.0352ZM87.5107 64.7578V69H86.9775V65.3086H86.9541L85.9229 65.9941V65.4609L86.9775 64.7578H87.5107ZM88.6416 69L88.6357 68.6133L90.083 67.0898C90.5869 66.5566 90.8271 66.2695 90.8271 65.877C90.8271 65.4434 90.458 65.1562 89.9834 65.1562C89.4795 65.1562 89.1572 65.4785 89.1572 65.9531H88.6592C88.6533 65.2031 89.2334 64.6992 90.001 64.6992C90.7686 64.6992 91.3193 65.2148 91.3193 65.877C91.3193 66.3516 91.0967 66.7207 90.3467 67.4941L89.374 68.4961V68.5312H91.3955V69H88.6416Z" fill="black"/>
<path d="M178.562 34L178.557 33.6133L180.004 32.0898C180.508 31.5566 180.748 31.2695 180.748 30.877C180.748 30.4434 180.379 30.1562 179.904 30.1562C179.4 30.1562 179.078 30.4785 179.078 30.9531H178.58C178.574 30.2031 179.154 29.6992 179.922 29.6992C180.689 29.6992 181.24 30.2148 181.24 30.877C181.24 31.3516 181.018 31.7207 180.268 32.4941L179.295 33.4961V33.5312H181.316V34H178.562ZM183.473 34.0586C182.529 34.0586 181.99 33.2676 181.99 31.8789C181.99 30.502 182.541 29.6992 183.473 29.6992C184.404 29.6992 184.955 30.502 184.955 31.8789C184.955 33.2676 184.41 34.0586 183.473 34.0586ZM183.473 33.5898C184.082 33.5898 184.439 32.9746 184.439 31.8789C184.439 30.7832 184.082 30.1562 183.473 30.1562C182.863 30.1562 182.5 30.7832 182.5 31.8789C182.5 32.9746 182.857 33.5898 183.473 33.5898ZM185.658 34L185.652 33.6133L187.1 32.0898C187.604 31.5566 187.844 31.2695 187.844 30.877C187.844 30.4434 187.475 30.1562 187 30.1562C186.496 30.1562 186.174 30.4785 186.174 30.9531H185.676C185.67 30.2031 186.25 29.6992 187.018 29.6992C187.785 29.6992 188.336 30.2148 188.336 30.877C188.336 31.3516 188.113 31.7207 187.363 32.4941L186.391 33.4961V33.5312H188.412V34H185.658ZM190.562 34.0586C189.795 34.0586 189.215 33.584 189.186 32.9336H189.695C189.736 33.3145 190.105 33.5957 190.562 33.5957C191.113 33.5957 191.512 33.1914 191.512 32.6582C191.512 32.1074 191.096 31.7031 190.527 31.6973C190.17 31.6914 189.895 31.8027 189.736 32.0781H189.227L189.525 29.7578H191.822V30.2266H189.965L189.807 31.4688H189.848C190.035 31.3223 190.322 31.2227 190.621 31.2227C191.43 31.2227 192.027 31.8203 192.027 32.6465C192.027 33.4668 191.406 34.0586 190.562 34.0586ZM192.965 34.0352C192.76 34.0352 192.584 33.8652 192.59 33.6543C192.584 33.4492 192.76 33.2793 192.965 33.2793C193.17 33.2793 193.34 33.4492 193.34 33.6543C193.34 33.8652 193.17 34.0352 192.965 34.0352ZM195.361 34.0586C194.418 34.0586 193.879 33.2676 193.879 31.8789C193.879 30.502 194.43 29.6992 195.361 29.6992C196.293 29.6992 196.844 30.502 196.844 31.8789C196.844 33.2676 196.299 34.0586 195.361 34.0586ZM195.361 33.5898C195.971 33.5898 196.328 32.9746 196.328 31.8789C196.328 30.7832 195.971 30.1562 195.361 30.1562C194.752 30.1562 194.389 30.7832 194.389 31.8789C194.389 32.9746 194.746 33.5898 195.361 33.5898ZM197.547 34L197.541 33.6133L198.988 32.0898C199.492 31.5566 199.732 31.2695 199.732 30.877C199.732 30.4434 199.363 30.1562 198.889 30.1562C198.385 30.1562 198.062 30.4785 198.062 30.9531H197.564C197.559 30.2031 198.139 29.6992 198.906 29.6992C199.674 29.6992 200.225 30.2148 200.225 30.877C200.225 31.3516 200.002 31.7207 199.252 32.4941L198.279 33.4961V33.5312H200.301V34H197.547ZM201.432 34.0352C201.227 34.0352 201.051 33.8652 201.057 33.6543C201.051 33.4492 201.227 33.2793 201.432 33.2793C201.637 33.2793 201.807 33.4492 201.807 33.6543C201.807 33.8652 201.637 34.0352 201.432 34.0352ZM203.582 29.7578V34H203.049V30.3086H203.025L201.994 30.9941V30.4609L203.049 29.7578H203.582ZM204.713 34L204.707 33.6133L206.154 32.0898C206.658 31.5566 206.898 31.2695 206.898 30.877C206.898 30.4434 206.529 30.1562 206.055 30.1562C205.551 30.1562 205.229 30.4785 205.229 30.9531H204.73C204.725 30.2031 205.305 29.6992 206.072 29.6992C206.84 29.6992 207.391 30.2148 207.391 30.877C207.391 31.3516 207.168 31.7207 206.418 32.4941L205.445 33.4961V33.5312H207.467V34H204.713Z" fill="black"/>
</svg>
