<svg width="33" height="37" viewBox="0 0 33 37" fill="none" xmlns="http://www.w3.org/2000/svg">
<path d="M6.17582 25.5674C9.58663 25.5674 12.3516 22.7931 12.3516 19.3708C12.3516 15.9486 9.58663 13.1743 6.17582 13.1743C2.76501 13.1743 0 15.9486 0 19.3708C0 22.7931 2.76501 25.5674 6.17582 25.5674Z" fill="#006244"/>
<path d="M14.0248 20.1404C19.5532 20.1404 24.0349 15.8346 24.0349 10.5231C24.0349 5.21158 19.5532 0.905762 14.0248 0.905762C8.49634 0.905762 4.01465 5.21158 4.01465 10.5231C4.01465 15.8346 8.49634 20.1404 14.0248 20.1404Z" fill="#006244"/>
<path d="M25.243 14.8013C27.6883 14.8013 29.6706 12.8124 29.6706 10.3589C29.6706 7.90544 27.6883 5.9165 25.243 5.9165C22.7977 5.9165 20.8154 7.90544 20.8154 10.3589C20.8154 12.8124 22.7977 14.8013 25.243 14.8013Z" fill="#006244"/>
<path d="M25.294 26.2807C29.3214 26.2807 32.5861 23.1012 32.5861 19.1792C32.5861 15.2571 29.3214 12.0776 25.294 12.0776C21.2667 12.0776 18.002 15.2571 18.002 19.1792C18.002 23.1012 21.2667 26.2807 25.294 26.2807Z" fill="#006244"/>
<path d="M13.8834 24.6119C17.9107 24.6119 21.1755 22.2896 21.1755 19.4248C21.1755 16.5601 17.9107 14.2378 13.8834 14.2378C9.85609 14.2378 6.59131 16.5601 6.59131 19.4248C6.59131 22.2896 9.85609 24.6119 13.8834 24.6119Z" fill="#006244"/>
<path d="M11.2231 19.731C11.2231 19.731 8.40937 29.0725 8.97114 33.8879C9.14185 35.3444 10.4494 36.434 11.9798 36.434H18.6302C20.0455 36.434 21.2029 35.3492 21.2284 33.9923C21.2937 30.563 21.456 24.7115 19.9244 20.3189L11.2231 19.731Z" fill="#006244"/>
</svg>
