<svg width="97" height="149" viewBox="0 0 97 149" fill="none" xmlns="http://www.w3.org/2000/svg">
<path d="M66.5325 148.869H50.9847C33.8676 148.869 20.7319 133.67 23.2603 116.728L31.4556 61.5112C33.4898 47.7652 45.2887 37.5938 59.18 37.5938C73.2166 37.5938 85.1027 47.9977 86.9626 61.918L94.3151 117.134C96.5528 133.932 83.4753 148.869 66.5325 148.869Z" fill="#C1E7BD"/>
<path d="M74.2051 96.7049C77.9609 96.7049 81.0055 93.6603 81.0055 89.9046C81.0055 86.1489 77.9609 83.1042 74.2051 83.1042C70.4494 83.1042 67.4048 86.1489 67.4048 89.9046C67.4048 93.6603 70.4494 96.7049 74.2051 96.7049Z" fill="#E3FFD4"/>
<path d="M47.3238 96.7049C51.0795 96.7049 54.1241 93.6603 54.1241 89.9046C54.1241 86.1489 51.0795 83.1042 47.3238 83.1042C43.5681 83.1042 40.5234 86.1489 40.5234 89.9046C40.5234 93.6603 43.5681 96.7049 47.3238 96.7049Z" fill="#E3FFD4"/>
<path d="M61.8828 59.7966C62.5512 61.6275 64.2658 62.9353 66.1257 63.5746C67.9856 64.214 69.9618 64.3302 71.9089 64.4464C74.4082 64.5627 76.9365 64.6789 79.3777 64.0686C85.3352 62.5575 89.3457 57.123 92.7749 52.0082C94.3442 49.6252 95.9426 47.155 96.3785 44.336C96.7854 41.5752 96.0007 38.8144 95.0998 36.1698C91.6996 26.1437 86.5558 16.7278 79.9589 8.4744C77.5177 5.42296 74.7569 2.45871 71.0952 1.06377C69.2062 0.337237 67.1429 0.0756852 65.1086 0.0175626C63.5683 -0.04056 61.999 0.0175626 60.575 0.62785C56.768 2.22622 55.4021 6.78884 53.484 10.4215C53.3097 10.7121 53.1353 11.0318 52.8447 11.2062C52.031 11.6711 51.101 10.8284 50.5198 10.1018C45.3759 3.67929 36.8901 -0.854276 28.8691 1.03471C25.0912 1.93561 21.7782 4.1152 18.7267 6.52729C16.0531 8.6197 13.4667 10.9737 11.9264 13.996C11.258 15.3038 10.793 16.7569 11.0255 18.2099C11.1999 19.3143 11.7811 20.3314 12.3623 21.3195C14.6291 25.1556 17.0703 28.9045 19.6858 32.5081C20.5867 33.7577 21.6329 35.0655 23.115 35.3852C18.6686 35.3852 14.2222 35.3852 9.77587 35.3852C8.99121 35.3852 8.1775 35.3852 7.48003 35.763C6.86974 36.0826 6.40476 36.6348 5.9979 37.187C3.49863 40.4999 1.78401 44.3651 0.970297 48.4337C0.766868 49.4799 0.621561 50.5842 0.970297 51.5723C1.34809 52.6185 2.24899 53.3741 3.12083 54.0716C14.3676 62.9062 28.7529 67.6432 43.051 67.3526C46.5675 67.2944 50.0839 66.9166 53.4259 65.8123C58.686 64.0686 63.1905 60.6104 67.5497 57.2102" fill="#088760"/>
<path d="M67.4043 88.3935C69.2982 88.3935 70.8336 86.4158 70.8336 83.9762C70.8336 81.5365 69.2982 79.5588 67.4043 79.5588C65.5104 79.5588 63.9751 81.5365 63.9751 83.9762C63.9751 86.4158 65.5104 88.3935 67.4043 88.3935Z" fill="#3C4C39"/>
<path d="M54.1524 88.3935C56.0463 88.3935 57.5816 86.4158 57.5816 83.9762C57.5816 81.5365 56.0463 79.5588 54.1524 79.5588C52.2585 79.5588 50.7231 81.5365 50.7231 83.9762C50.7231 86.4158 52.2585 88.3935 54.1524 88.3935Z" fill="#3C4C39"/>
</svg>
