<svg width="286" height="363" viewBox="0 0 286 363" fill="none" xmlns="http://www.w3.org/2000/svg">
<path d="M93.1911 188.507C93.1911 188.507 61.0542 169.815 54.2782 193.422C54.2782 193.422 48.4951 205.6 71.2945 211.651C94.094 217.703 93.1961 188.488 93.1961 188.488L93.1911 188.507Z" fill="#C1E7BD"/>
<mask id="mask0_51_1414" style="mask-type:luminance" maskUnits="userSpaceOnUse" x="53" y="181" width="41" height="32">
<path d="M93.1911 188.507C93.1911 188.507 61.0542 169.815 54.2782 193.422C54.2782 193.422 48.4951 205.6 71.2945 211.651C94.094 217.703 93.1961 188.488 93.1961 188.488L93.1911 188.507Z" fill="white"/>
</mask>
<g mask="url(#mask0_51_1414)">
<path d="M86.1508 184.74C86.1508 184.74 73.2831 199.853 66.6916 219.305" stroke="#088760" stroke-width="1.76408" stroke-miterlimit="10" stroke-linecap="round"/>
</g>
<path d="M271.556 143.343C274.605 141.691 290.209 122.422 270.791 99.4122C259.427 85.9336 243.789 80.2959 237.425 78.7599C231.359 66.8165 221.685 55.905 208.782 47.6278C173.591 25.1031 127.886 30.7181 106.701 60.1987C100.363 69.0149 96.9498 78.9735 96.2127 89.2238C81.1952 88.6083 66.6486 94.6566 58.0405 106.622C52.1121 114.88 49.9919 124.578 51.2628 134.061C49.2787 138.113 45.6298 166.648 78.4845 169.427C86.8093 173.361 95.7766 174.914 104.373 174.259C104.815 174.303 105.233 174.358 105.675 174.401C110.675 180.916 117.373 187.105 125.494 192.298C146.658 205.857 170.82 208.49 185.039 200.058C189.223 209.651 195.643 219.969 205.508 228.111C220.81 240.752 235.5 249.5 251.396 244.542C263.308 238 263.308 232.5 263.308 223.722C275.396 222.412 286.045 217.14 292.633 208.051C317.188 174.158 272.821 144.119 271.572 143.405L271.556 143.343Z" fill="#088760"/>
<path d="M153.265 136.846C153.265 136.846 42.9593 176.867 64.3338 280.775C64.3338 280.775 72.075 313.807 125.482 312.637C125.482 312.637 140.49 337.434 153.914 326.836C153.914 326.836 160.416 320.562 155.898 313.364C155.898 313.364 167.138 309.613 168.207 293.898C170.079 266.01 180.12 244.556 185.742 247.823C191.364 251.091 206.591 269.294 214.477 259.572C214.477 259.572 223.749 249.32 216.772 240.163C212.613 234.692 200.284 222.094 200.284 222.094L229.471 215.536L209.26 164.83L153.241 136.86L153.265 136.846Z" fill="#C1E7BD"/>
<path d="M149.029 224.692C153.672 225.925 158.435 223.16 159.667 218.517C160.899 213.874 158.134 209.111 153.491 207.879C148.848 206.646 144.086 209.411 142.853 214.054C141.621 218.697 144.386 223.46 149.029 224.692Z" fill="#E3FFD4"/>
<path d="M116.246 211.971C120.278 213.041 124.414 210.64 125.485 206.608C126.555 202.575 124.154 198.439 120.122 197.369C116.089 196.298 111.953 198.699 110.882 202.732C109.812 206.764 112.213 210.901 116.246 211.971Z" fill="#E3FFD4"/>
<path d="M147.293 210.999C149.737 208.544 150.478 205.32 148.95 203.799C147.421 202.277 144.201 203.034 141.757 205.489C139.314 207.944 138.572 211.168 140.101 212.689C141.629 214.211 144.85 213.454 147.293 210.999Z" fill="#005138"/>
<path d="M129.367 205.086C131.811 202.631 132.552 199.408 131.024 197.886C129.495 196.365 126.275 197.121 123.831 199.577C121.388 202.032 120.646 205.255 122.175 206.777C123.703 208.298 126.924 207.541 129.367 205.086Z" fill="#005138"/>
<path d="M138.037 200.757C137.102 200.51 136.289 199.885 135.8 198.96C134.929 197.321 133.47 193.975 133.449 190.133C133.442 189.314 134.107 188.654 134.925 188.647C135.743 188.64 136.403 189.305 136.411 190.123C136.436 193.333 137.682 196.174 138.427 197.596C138.548 197.832 138.799 197.96 139.015 197.916C144.282 196.987 150.261 192.758 150.314 192.711C150.972 192.233 151.907 192.399 152.385 193.057C152.864 193.714 152.697 194.65 152.04 195.128C151.764 195.32 145.451 199.807 139.523 200.846C139.01 200.934 138.508 200.903 138.032 200.777L138.037 200.757Z" fill="#005138"/>
<path d="M136.367 213.659C134.351 214.104 131.042 214.348 127.291 212.72C126.302 212.294 125.172 213.321 125.651 214.284C127.237 217.46 128.807 223.999 129.472 226.95C129.611 227.579 130.417 227.772 130.831 227.291C132.729 225.06 136.682 220.008 137.842 215.173C138.061 214.272 137.26 213.448 136.348 213.654L136.367 213.659Z" fill="#005138"/>
<path d="M59.3744 287.928C59.3744 287.928 70.1426 317.09 87.4278 314.087C104.713 311.084 82.804 280.842 79.58 276.844C68.1254 262.723 51.7713 272.136 59.3935 287.934L59.3744 287.928Z" fill="#C1E7BD"/>
<path d="M65.5485 292.479C65.5485 292.479 71.4579 308.482 80.9438 306.834C90.4297 305.186 78.4063 288.59 76.637 286.396C70.3509 278.646 61.376 283.812 65.5589 292.481L65.5485 292.479Z" fill="#A6CEA2"/>
<path d="M148.017 154.697C148.017 154.697 162.378 183.24 194.505 179.749C194.505 179.749 172.397 212.224 201.18 222.332C201.18 222.332 205.164 217.778 200.789 222.269L232.756 237.141L242.384 180.417L192.809 128.712C192.809 128.712 152.852 123.412 144.8 124.458C136.747 125.504 89.7465 165.35 89.7465 165.35L90.7385 180.448C90.7385 180.448 103.028 163.284 109.279 162.413C109.279 162.413 133.736 173.291 148.022 154.678L148.017 154.697Z" fill="#088760"/>
<path d="M129.827 311.566C129.827 311.566 138.83 315.241 149.289 310.589" stroke="#088760" stroke-width="1.76408" stroke-miterlimit="10" stroke-linecap="round"/>
<path d="M67.1797 268.592C67.1797 268.592 81.8798 263.72 91.1853 291.472" stroke="#088760" stroke-width="1.76408" stroke-miterlimit="10" stroke-linecap="round"/>
<path d="M180.135 252.316L185.747 260.703L217.493 239.46L211.88 231.073L180.135 252.316Z" fill="#FFE629"/>
<path d="M211.87 231.079L217.482 239.466L220.642 233.492C221.345 232.162 220.323 230.564 218.818 230.649L211.873 231.061L211.87 231.079Z" fill="#FFF7D3"/>
<mask id="mask1_51_1414" style="mask-type:luminance" maskUnits="userSpaceOnUse" x="211" y="230" width="10" height="10">
<path d="M211.87 231.079L217.482 239.466L220.642 233.492C221.345 232.162 220.323 230.564 218.818 230.649L211.873 231.061L211.87 231.079Z" fill="white"/>
</mask>
<g mask="url(#mask1_51_1414)">
<path d="M214.6 228.549L220.299 237.066L226.149 233.151L220.45 224.634L214.6 228.549Z" fill="#4A3500"/>
</g>
<path d="M180.135 252.316L185.747 260.703L188.489 258.868L182.877 250.481L180.135 252.316Z" fill="#748972"/>
<path d="M178.409 262.581L175.592 258.372C174.819 257.217 175.13 255.649 176.285 254.876L180.128 252.305L185.747 260.703L181.904 263.274C180.749 264.047 179.182 263.736 178.409 262.581Z" fill="#FF7300"/>
</svg>
