<svg width="197" height="192" viewBox="0 0 197 192" fill="none" xmlns="http://www.w3.org/2000/svg">
<path d="M40.4965 182.38L30.6926 183.359C19.4837 184.48 10.5638 174.66 12.2846 162.646L17.8418 123.967C19.2153 114.463 26.9984 107.722 35.8866 108.069C44.5854 108.417 51.7371 115.474 52.8264 124.567L57.1363 160.231C58.4309 170.966 50.7582 181.338 40.4807 182.364L40.4965 182.38Z" fill="#C1E7BD"/>
<path d="M42.0913 142.06C42.0913 139.897 43.7016 138.129 45.6908 138.098C47.68 138.066 49.2429 139.771 49.2429 141.902C49.2429 144.034 47.6642 145.802 45.6908 145.865C43.7174 145.928 42.0913 144.223 42.0913 142.076V142.06Z" fill="#D7F4D3"/>
<path d="M23.6362 142.502C23.6362 140.26 25.3728 138.428 27.4883 138.397C29.6038 138.365 31.293 140.118 31.293 142.328C31.293 144.538 29.6038 146.369 27.4883 146.433C25.3728 146.496 23.6362 144.743 23.6362 142.502Z" fill="#D7F4D3"/>
<path d="M43.1491 139.107C43.1491 140.718 42.2019 142.06 41.0336 142.091C39.8654 142.123 38.9023 140.828 38.9023 139.186C38.9023 137.544 39.8654 136.218 41.0336 136.203C42.2019 136.187 43.1491 137.481 43.1491 139.107Z" fill="#3C4C39"/>
<path d="M34.9094 139.265C34.9094 140.907 33.9306 142.265 32.7307 142.297C31.5309 142.328 30.5205 141.002 30.5205 139.36C30.5205 137.718 31.5151 136.345 32.7307 136.329C33.9463 136.313 34.9094 137.624 34.9094 139.265Z" fill="#3C4C39"/>
<path d="M59.7735 101.897C60.3419 101.218 62.3784 94.8715 55.8741 90.1353C51.9904 87.3094 47.6805 86.9147 45.9754 86.9778C43.4021 84.1045 39.9921 81.768 35.9505 80.3787C24.6153 76.4793 12.6485 81.5312 9.66469 91.9034C8.76482 95.0293 8.8122 98.2499 9.63314 101.328C5.29164 102.465 1.72369 105.544 0.460709 109.885C-0.407591 112.885 -0.0128894 115.963 1.34482 118.631C1.18694 120.021 1.04484 126.841 12.7274 126.241C15.4271 126.541 18.0635 126.114 20.3369 125.088C20.4632 125.057 20.5895 125.025 20.7 125.009C22.6892 126.367 25.0731 127.456 27.7253 128.119C34.5297 129.824 40.9393 128.23 43.7336 124.615C45.6281 126.825 48.1225 129.004 51.2326 130.251C56.0004 132.161 58.8579 132.887 63.4835 130.314C67.2725 128.198 65.9779 125.515 64.5097 123.81C67.1778 122.404 69.1512 120.115 69.909 117.195C72.6875 106.38 60.105 102.007 59.7419 101.913L59.7735 101.897Z" fill="#088760"/>
<path d="M35.6349 142.865L38.4293 142.801C39.187 142.786 39.6765 143.622 39.3449 144.349L37.9556 147.38C37.5767 148.201 36.5032 148.232 36.1243 147.443L34.7193 144.475C34.3719 143.749 34.8771 142.88 35.6349 142.865Z" fill="#3C4C39"/>
<path d="M60.7366 136.14C62.1101 137.229 62.268 139.471 61.0524 140.829L54.0902 148.628C53.1114 149.733 51.5642 149.922 50.4275 149.07C49.1488 148.107 48.8488 146.133 49.7802 144.696L54.5322 137.34C55.9846 135.098 58.7632 134.577 60.7366 136.14Z" fill="#C1E7BD"/>
<path d="M8.21215 137.023C6.55448 138.318 6.42818 140.812 7.95954 142.217L16.4057 150C17.5582 151.058 19.3106 151.09 20.5578 150.063C21.9629 148.895 22.2312 146.811 21.1577 145.39L15.5848 137.939C13.8482 135.618 10.5487 135.192 8.21215 137.023Z" fill="#C1E7BD"/>
<path d="M176.646 76.4473C177.704 75.1843 181.509 63.9754 169.542 57.5657C162.675 53.8873 155.286 54.3609 152.429 54.8661C148.182 50.9351 142.656 48.1565 136.294 47.0672C119.37 44.1939 102.888 54.503 98.9729 69.8798C97.8046 74.4581 97.8678 79.0049 98.9413 83.2359C93.3842 85.3671 88.9006 90.0717 87.3535 96.1656C86.2957 100.365 86.7693 104.549 88.4428 108.164C88.2533 110.074 88.0639 119.499 102.983 118.489C106.598 118.884 110.182 118.205 113.339 116.658C113.513 116.61 113.687 116.563 113.845 116.515C116.639 118.473 120.049 120.052 123.901 121.031C134.1 123.604 144.172 121.094 148.734 115.3C151.86 118.789 156.044 122.262 161.38 124.299C169.779 127.503 174.989 128.782 183.624 124.456C190.95 120.794 188.424 116.168 185.582 113.263C190.744 110.722 194.66 106.585 196.159 101.407C201.795 81.9413 177.262 76.542 176.615 76.4473H176.646Z" fill="#088760"/>
<path d="M165.548 180.928C168.99 176.728 170.679 170.966 169.732 163.625L162.091 104.249C160.181 89.4246 148.135 78.8155 134.258 79.3839C120.381 79.9522 109.93 90.656 108.051 104.58L100.6 159.931C99.6839 166.735 101.089 172.355 104.12 176.76C100.789 178.307 98.1525 180.801 98.6893 184.843C98.6893 184.843 97.821 186.437 112.629 186.532C115.361 186.548 153.013 189.405 155.776 189.8C172.59 192.184 171.563 190.321 171.563 190.321C172.163 186.137 169.258 183.09 165.564 180.943L165.548 180.928Z" fill="#C1E7BD"/>
<path d="M135.994 131.593C135.994 128.578 138.283 126.162 141.141 126.194C143.998 126.225 146.335 128.704 146.335 131.751C146.335 134.798 143.998 137.213 141.141 137.15C138.283 137.087 135.994 134.609 135.994 131.593Z" fill="#D7F4D3"/>
<path d="M111.462 131.229C111.462 128.292 113.641 125.94 116.34 125.972C119.04 126.003 121.266 128.419 121.266 131.387C121.266 134.355 119.056 136.707 116.34 136.644C113.625 136.581 111.462 134.165 111.462 131.229Z" fill="#D7F4D3"/>
<path d="M138.141 127.03C138.141 129.572 136.626 131.608 134.779 131.577C132.931 131.545 131.432 129.477 131.432 126.951C131.432 124.425 132.931 122.388 134.779 122.404C136.626 122.42 138.141 124.488 138.141 127.03Z" fill="#3C4C39"/>
<path d="M125.338 126.903C125.338 129.414 123.87 131.419 122.07 131.387C120.27 131.355 118.818 129.319 118.818 126.825C118.818 124.33 120.27 122.325 122.07 122.341C123.87 122.357 125.338 124.393 125.338 126.903Z" fill="#3C4C39"/>
<path d="M126.443 132.444L130.721 132.507C131.889 132.523 132.647 133.849 132.126 134.97L129.979 139.548C129.395 140.78 127.753 140.732 127.169 139.485L125.038 134.828C124.533 133.707 125.275 132.413 126.427 132.428L126.443 132.444Z" fill="#3C4C39"/>
<path d="M136.815 137.417C137.636 134.465 140.793 133.044 143.446 134.465L158.649 142.643C160.796 143.795 161.885 146.385 161.206 148.768C160.433 151.452 157.701 152.905 155.097 152.021L141.898 147.49C137.904 146.116 135.631 141.617 136.799 137.433L136.815 137.417Z" fill="#C1E7BD"/>
<path d="M96.2101 126.13C94.2367 128.103 94.3472 131.592 96.4469 133.455L108.461 144.127C110.166 145.627 112.582 145.611 114.192 144.064C116.023 142.296 116.165 139.218 114.508 137.181L105.998 126.761C103.409 123.588 99.0203 123.32 96.2101 126.13Z" fill="#C1E7BD"/>
<path d="M132.284 116.468L129.853 120.052C129.238 120.968 127.959 120.92 127.39 119.957L125.322 116.468" stroke="#3C4C39" stroke-width="1.57873" stroke-miterlimit="10" stroke-linecap="round"/>
<path d="M127.943 95.6924C127.943 95.6924 138.078 107.738 152.887 101.518C152.887 101.518 146.429 120.826 161.633 122.152C161.633 122.152 163.006 119.294 161.443 122.168L179.409 125.578L176.646 94.9188L145.609 76.3372C145.609 76.3372 119.181 78.5316 115.707 80.2208C112.234 81.9101 103.267 108.78 103.267 108.78L105.43 115.869C105.43 115.869 108.808 106.033 111.461 104.786C111.461 104.786 123.68 106.759 127.927 95.7081L127.943 95.6924Z" fill="#088760"/>
<path d="M153.55 139.913C138.473 129.793 136.5 138.697 136.5 138.697C136.5 138.697 133.232 145.138 142.373 148.785" stroke="#088760" stroke-width="1.57873" stroke-miterlimit="10" stroke-linecap="round"/>
<path d="M60.5626 50.3832C60.5626 40.4373 48.5485 32.3857 33.74 32.3857C18.9316 32.3857 6.91748 40.4373 6.91748 50.3832C6.91748 58.8926 15.7268 65.9969 27.5357 67.8755L33.74 74.6483L39.9445 67.8755C51.7691 65.9969 60.5626 58.8926 60.5626 50.3832Z" fill="#BCBCBC"/>
<path d="M166.985 23.4177C169.416 13.7875 162.122 3.63624 150.724 0.762952C139.325 -2.11033 128.101 3.38364 125.685 13.0139C123.617 21.2548 128.653 29.8589 137.289 33.9636L140.415 41.7309L146.856 36.3633C156.407 36.8211 164.917 31.6429 167 23.4019L166.985 23.4177Z" fill="#BCBCBC"/>
</svg>
