<svg width="24" height="55" viewBox="0 0 24 55" fill="none" xmlns="http://www.w3.org/2000/svg">
<path d="M15.1851 46.9152V50.4122H6.82732V46.9152H15.1851ZM8.09651 47.9009V49.4266H13.9429V47.9009H8.09651ZM15.9142 39.4216V40.4072H6.0712V39.4216H10.3784V38.3009H11.661V39.4216H15.9142ZM11.013 40.8393C13.5648 40.8393 14.9825 41.4199 14.9825 42.5541C14.9825 43.587 13.8011 44.1608 11.661 44.2553V45.0789H16.5353V46.0916H5.50412V45.0789H10.3784V44.2553C8.23828 44.1608 7.02985 43.587 7.04335 42.5541C7.02985 41.4199 8.47457 40.8393 11.013 40.8393ZM11.013 41.7169C9.3252 41.7304 8.40706 42.0005 8.40706 42.5541C8.40706 43.0941 9.3252 43.3912 11.013 43.3912C12.7142 43.3912 13.6188 43.0941 13.6188 42.5541C13.6188 42.0005 12.7142 41.7304 11.013 41.7169Z" fill="#1E624D"/>
<path fill-rule="evenodd" clip-rule="evenodd" d="M8.67027 22.6279V19.0945C8.67025 18.1958 9.40294 17.4655 10.3107 17.4595H13.636C14.5481 17.4595 15.2875 18.1915 15.2875 19.0945V22.6389C15.2873 23.4019 15.9025 24.0256 16.6731 24.0435H18.8899C21.0998 24.0435 22.8913 22.2699 22.8913 20.0821V10.0305C22.8795 9.16987 22.4713 8.36164 21.7829 7.83589L14.2013 1.78959C12.8731 0.736805 10.985 0.736805 9.65676 1.78959L2.10842 7.84686C1.41738 8.37048 1.00851 9.18005 1 10.0415V20.0821C1 22.2699 2.79149 24.0435 5.0014 24.0435H7.21824C8.00793 24.0435 8.6481 23.4097 8.6481 22.6279" fill="#1E624D"/>
<path d="M8.67027 22.6279V19.0945C8.67025 18.1958 9.40294 17.4655 10.3107 17.4595H13.636C14.5481 17.4595 15.2875 18.1915 15.2875 19.0945V19.0945V22.6389C15.2873 23.4019 15.9025 24.0256 16.6731 24.0435H18.8899C21.0998 24.0435 22.8913 22.2699 22.8913 20.0821V20.0821V10.0305C22.8795 9.16987 22.4713 8.36164 21.7829 7.83589L14.2013 1.78959C12.8731 0.736805 10.985 0.736805 9.65676 1.78959L2.10842 7.84686C1.41738 8.37048 1.00851 9.18005 1 10.0415V20.0821C1 22.2699 2.79149 24.0435 5.0014 24.0435H7.21824C8.00793 24.0435 8.6481 23.4097 8.6481 22.6279V22.6279" stroke="#1E624D" stroke-width="1.72826" stroke-linecap="round" stroke-linejoin="round"/>
</svg>
