<svg width="209" height="256" viewBox="0 0 209 256" fill="none" xmlns="http://www.w3.org/2000/svg">
<path d="M173.744 57.5274C175.598 55.4341 182.236 36.5053 161.184 24.3048C148.864 17.1579 135.408 17.128 130.175 17.6962C122.31 10.2502 111.964 4.59847 99.8826 1.81746C66.959 -5.74808 33.7066 10.9978 25.6028 39.1966C23.1806 47.6293 23.3002 56.1518 25.5131 64.136C13.9106 67.7543 4.49101 76.3365 1.20164 87.7895C-1.07101 95.684 -0.0243972 103.638 3.5341 110.516C3.14536 114.134 2.7566 131.927 33.886 130.013C41.302 130.731 48.5386 129.475 54.908 126.634C55.2668 126.544 55.5958 126.484 55.9247 126.395C61.5166 129.983 68.3047 132.884 75.8702 134.618C95.6662 139.163 114.774 134.618 123.297 124.301C129.098 130.462 136.783 136.562 146.532 140.061C161.633 145.503 170.843 147.596 185.944 140.061C198.534 133.781 194.228 125.916 189.323 120.952C198.175 116.676 204.843 109.739 207.355 101.037C216.805 68.5318 174.85 57.7666 173.684 57.5572L173.744 57.5274Z" fill="#088760"/>
<path d="M154.038 238.502C160.198 230.816 163.218 220.679 161.514 208.06L147.788 105.013C144.319 79.0272 122.161 59.6199 95.9359 59.6199C69.7107 59.6199 48.0009 78.6085 44.2032 104.266L28.9226 207.312C27.0387 220.081 29.9393 230.428 36.1592 238.262C29.3113 241.552 23.8689 246.546 24.9454 254.051C24.9454 254.051 23.1213 257.131 53.4134 255.218C58.8857 254.859 131.162 254.889 136.246 255.218C166.538 257.131 164.714 254.051 164.714 254.051C165.79 246.755 160.617 241.821 154.008 238.502H154.038Z" fill="#C1E7BD"/>
<path d="M123.386 164.223C128.787 164.223 133.165 159.845 133.165 154.444C133.165 149.044 128.787 144.666 123.386 144.666C117.986 144.666 113.608 149.044 113.608 154.444C113.608 159.845 117.986 164.223 123.386 164.223Z" fill="#D7F4D3"/>
<path d="M75.2427 164.223C80.6432 164.223 85.0211 159.845 85.0211 154.444C85.0211 149.044 80.6432 144.666 75.2427 144.666C69.8423 144.666 65.4644 149.044 65.4644 154.444C65.4644 159.845 69.8423 164.223 75.2427 164.223Z" fill="#D7F4D3"/>
<path d="M104.966 154.445C112.001 154.445 117.705 147.121 117.705 138.088C117.705 129.054 112.001 121.73 104.966 121.73C97.9304 121.73 92.2271 129.054 92.2271 138.088C92.2271 147.121 97.9304 154.445 104.966 154.445Z" fill="#3C4C39"/>
<path d="M16.3322 190.927C20.1599 194.964 26.6788 194.605 30.028 190.15L48.8671 165.061C51.4986 161.562 51.1995 156.688 48.2092 153.518C44.8002 149.93 39.1186 149.75 35.5302 153.159L16.9303 170.743C11.1889 176.155 10.9496 185.216 16.3621 190.957L16.3322 190.927Z" fill="#C1E7BD"/>
<path d="M83.7348 88.6855C83.7348 88.6855 103.232 110.664 130.982 99.989C130.982 99.989 118.991 134.079 146.98 136.292C146.98 136.292 149.462 131.298 146.621 136.322L178.558 142.003L173.744 89.2836L117.466 55.0144C117.466 55.0144 66.5404 56.9282 59.6327 59.7391C52.725 62.55 34.4541 111.92 34.4541 111.92L38.8798 125.108C38.8798 125.108 45.7576 106.956 51.1103 104.684C51.1103 104.684 75.4216 108.571 83.7348 88.6556V88.6855Z" fill="#088760"/>
<path opacity="0.32" d="M105.714 162.458C119.504 162.458 130.683 151.279 130.683 137.489C130.683 123.699 119.504 112.52 105.714 112.52C91.9238 112.52 80.7446 123.699 80.7446 137.489C80.7446 151.279 91.9238 162.458 105.714 162.458Z" fill="#E2F2F7"/>
<mask id="mask0_136_3152" style="mask-type:luminance" maskUnits="userSpaceOnUse" x="80" y="112" width="51" height="51">
<path d="M105.714 162.458C119.504 162.458 130.683 151.279 130.683 137.489C130.683 123.698 119.504 112.519 105.714 112.519C91.9238 112.519 80.7446 123.698 80.7446 137.489C80.7446 151.279 91.9238 162.458 105.714 162.458Z" fill="white"/>
</mask>
<g mask="url(#mask0_136_3152)">
<path opacity="0.47" d="M131.16 119.817L111.256 112.009L90.4082 165.151L110.312 172.959L131.16 119.817Z" fill="white"/>
</g>
<path opacity="0.32" d="M105.714 162.458C119.504 162.458 130.683 151.279 130.683 137.489C130.683 123.699 119.504 112.52 105.714 112.52C91.9238 112.52 80.7446 123.699 80.7446 137.489C80.7446 151.279 91.9238 162.458 105.714 162.458Z" stroke="#609DB2" stroke-width="2.99033" stroke-miterlimit="10"/>
<path d="M105.714 162.459C119.504 162.459 130.683 151.279 130.683 137.489C130.683 123.699 119.504 112.52 105.714 112.52C91.9238 112.52 80.7446 123.699 80.7446 137.489C80.7446 151.279 91.9238 162.459 105.714 162.459Z" stroke="#609DB2" stroke-width="2.99033" stroke-miterlimit="10"/>
<path d="M125.405 154.506L117.704 159.825L131.927 180.42L139.629 175.101L125.405 154.506Z" fill="#609DB2"/>
<path d="M125.54 164.044C127.125 158.781 132.448 156.418 136.694 159.08L160.706 174.151C164.056 176.244 165.581 180.79 164.355 184.916C162.949 189.611 158.494 192.093 154.427 190.478L133.285 182.165C126.766 179.594 123.297 171.49 125.54 164.014V164.044Z" fill="#C1E7BD"/>
<path d="M135.018 158.69C135.018 158.69 125.659 155.042 124.941 167.063C124.223 179.084 135.886 181.566 135.886 181.566" stroke="#088760" stroke-width="2.24275" stroke-miterlimit="10" stroke-linecap="round"/>
</svg>
