<svg width="59" height="56" viewBox="0 0 59 56" fill="none" xmlns="http://www.w3.org/2000/svg">
<path d="M6.92612 41.2515V49.1097H1.26877V41.2515H6.92612ZM2.52446 42.2642V48.0701H5.65693V42.2642H2.52446ZM10.2341 40.0498V44.7891H12.1784V45.8692H10.2341V52.1477H8.95143V40.0498H10.2341ZM22.4088 40.0498V52.1747H21.1261V40.0498H22.4088ZM15.9413 40.9545C17.7371 40.9545 19.0603 42.6017 19.0603 45.1941C19.0603 47.8 17.7371 49.4473 15.9413 49.4473C14.1186 49.4473 12.8089 47.8 12.8089 45.1941C12.8089 42.6017 14.1186 40.9545 15.9413 40.9545ZM15.9413 42.1022C14.8207 42.1022 14.0511 43.2903 14.0511 45.1941C14.0511 47.1114 14.8207 48.2996 15.9413 48.2996C17.0485 48.2996 17.8181 47.1114 17.8181 45.1941C17.8181 43.2903 17.0485 42.1022 15.9413 42.1022ZM34.435 40.0498V52.1477H33.2063V40.0498H34.435ZM32.0451 40.3199V51.5266H30.83V45.7342H29.3177V44.5865H30.83V40.3199H32.0451ZM29.6418 41.5351V42.5882H28.7101V47.989C29.1219 47.962 29.5203 47.9148 29.8848 47.8675L29.9793 48.7992C28.062 49.1772 25.5507 49.2312 23.9844 49.2312L23.8359 48.1511L25.0241 48.1376V42.5882H24.0924V41.5351H29.6418ZM26.1853 48.1241C26.6241 48.1106 27.0764 48.0971 27.522 48.0701V42.5882H26.1853V48.1241ZM45.57 40.0498V52.1747H44.2873V40.0498H45.57ZM39.1026 40.9545C40.8983 40.9545 42.2215 42.6017 42.2215 45.1941C42.2215 47.8 40.8983 49.4473 39.1026 49.4473C37.2798 49.4473 35.9701 47.8 35.9701 45.1941C35.9701 42.6017 37.2798 40.9545 39.1026 40.9545ZM39.1026 42.1022C37.9819 42.1022 37.2123 43.2903 37.2123 45.1941C37.2123 47.1114 37.9819 48.2996 39.1026 48.2996C40.2097 48.2996 40.9793 47.1114 40.9793 45.1941C40.9793 43.2903 40.2097 42.1022 39.1026 42.1022ZM51.5878 43.6144C51.5878 45.6397 52.911 47.7325 54.7743 48.5291L54.0722 49.5283C52.6477 48.9004 51.5135 47.5705 50.9532 45.9502C50.3929 47.6785 49.252 49.1502 47.8477 49.8388L47.1051 48.8262C48.9279 47.9755 50.2781 45.6937 50.2916 43.6144V42.3317H47.5237V41.265H54.3422V42.3317H51.5878V43.6144ZM57.1506 40.0498V52.1477H55.868V40.0498H57.1506Z" fill="#BBBBBB"/>
<rect x="13" width="31" height="31" rx="15.5" fill="#BBBBBB"/>
<path d="M28.5755 18.4658C24.6552 18.4658 21.3066 19.0839 21.3066 21.5563C21.3066 24.0295 24.6343 24.6694 28.5755 24.6694C32.4958 24.6694 35.8444 24.0522 35.8444 21.579C35.8444 19.1057 32.5176 18.4658 28.5755 18.4658Z" fill="white"/>
<path d="M28.5758 16.1106C31.2463 16.1106 33.386 13.97 33.386 11.3004C33.386 8.63081 31.2463 6.49023 28.5758 6.49023C25.9062 6.49023 23.7656 8.63081 23.7656 11.3004C23.7656 13.97 25.9062 16.1106 28.5758 16.1106Z" fill="white"/>
</svg>
