<svg width="32" height="30" viewBox="0 0 32 30" fill="none" xmlns="http://www.w3.org/2000/svg">
<path d="M28.25 12.5V7.6C28.25 5.63982 28.25 4.65972 27.8685 3.91103C27.533 3.25247 26.9975 2.71703 26.339 2.38148C25.5903 2 24.6102 2 22.65 2H7.6C5.63982 2 4.65972 2 3.91103 2.38148C3.25247 2.71703 2.71703 3.25247 2.38148 3.91103C2 4.65972 2 5.63982 2 7.6V17.4C2 19.3602 2 20.3403 2.38148 21.089C2.71703 21.7475 3.25247 22.283 3.91103 22.6185C4.65972 23 5.63982 23 7.6 23H19.5" stroke="#088760" stroke-width="3.5" stroke-linecap="round"/>
<path d="M8.99951 16.0005H15.9995" stroke="#088760" stroke-width="3.5" stroke-linecap="round"/>
<path d="M8.99951 9H21.2495" stroke="#088760" stroke-width="3.5" stroke-linecap="round"/>
<circle cx="26.5" cy="19.5005" r="1.75" stroke="#088760" stroke-width="3.5"/>
<path d="M30 28.2505C30 28.2505 29.125 26.5005 26.5 26.5005C23.875 26.5005 23 28.2505 23 28.2505" stroke="#088760" stroke-width="3.5" stroke-linecap="round"/>
</svg>
