<svg width="28" height="56" viewBox="0 0 28 56" fill="none" xmlns="http://www.w3.org/2000/svg">
<path d="M12.9962 40.0633V47.4895H11.781V44.2355H10.2958V47.0709H9.09408V40.2794H10.2958V43.1958H11.781V40.0633H12.9962ZM7.78438 40.9275V44.2895H4.46288V45.7882C5.96161 45.7747 7.10253 45.7072 8.43248 45.4507L8.5675 46.4903C7.04177 46.7739 5.78608 46.8279 4.01731 46.8279H3.22069V43.3443H6.5557V41.9536H3.19369V40.9275H7.78438ZM8.94556 47.692C11.4704 47.692 13.0502 48.5156 13.0637 49.9063C13.0502 51.297 11.4704 52.1342 8.94556 52.1207C6.42068 52.1342 4.84094 51.297 4.85444 49.9063C4.84094 48.5156 6.42068 47.692 8.94556 47.692ZM8.94556 48.6912C7.19029 48.6912 6.11013 49.1367 6.12363 49.9063C6.11013 50.6895 7.19029 51.135 8.94556 51.135C10.7008 51.135 11.7675 50.6895 11.781 49.9063C11.7675 49.1367 10.7008 48.6912 8.94556 48.6912ZM20.7287 40.8465C20.7287 44.0194 19.0004 46.2743 15.0443 47.422L14.5718 46.3958C16.5431 45.8422 17.8258 45.0321 18.5684 44.0194L14.7068 44.3165L14.5043 43.2768L19.0814 43.0878C19.23 42.7097 19.3245 42.2979 19.365 41.8726H15.1118V40.8465H20.7287ZM24.2932 40.0633V47.2869H23.0105V40.0633H24.2932ZM20.2561 47.449C22.7675 47.449 24.3472 48.3131 24.3472 49.7983C24.3472 51.2835 22.7675 52.1207 20.2561 52.1207C17.7042 52.1207 16.1245 51.2835 16.1245 49.7983C16.1245 48.3131 17.7042 47.449 20.2561 47.449ZM20.2561 48.4616C18.4469 48.4616 17.4072 48.9612 17.4072 49.7983C17.4072 50.6219 18.4469 51.1215 20.2561 51.1215C22.0114 51.1215 23.0781 50.6219 23.0781 49.7983C23.0781 48.9612 22.0114 48.4616 20.2561 48.4616Z" fill="#1E624D"/>
<path d="M13.9993 21.7815L7.21295 25.7562C6.91315 25.9417 6.59973 26.0212 6.27267 25.9947C5.94562 25.9682 5.65945 25.8622 5.41416 25.6767C5.16887 25.4912 4.97809 25.2596 4.84182 24.9819C4.70554 24.7042 4.67829 24.3926 4.76005 24.0471L6.55885 16.5348L0.549246 11.4869C0.276702 11.2485 0.106634 10.9766 0.0390433 10.6713C-0.0285477 10.3661 -0.00837953 10.0682 0.099548 9.77782C0.207475 9.4874 0.371002 9.24891 0.590127 9.06237C0.809253 8.87582 1.10905 8.75658 1.48952 8.70464L9.42056 8.02894L12.4867 0.953933C12.623 0.635956 12.8344 0.397472 13.1212 0.238483C13.4079 0.0794942 13.7006 0 13.9993 0C14.298 0 14.5907 0.0794942 14.8774 0.238483C15.1642 0.397472 15.3757 0.635956 15.5119 0.953933L18.578 8.02894L26.5091 8.70464C26.8906 8.75764 27.1904 8.87688 27.4085 9.06237C27.6265 9.24785 27.79 9.48634 27.8991 9.77782C28.0081 10.0693 28.0288 10.3677 27.9612 10.6729C27.8936 10.9782 27.723 11.2495 27.4494 11.4869L21.4398 16.5348L23.2386 24.0471C23.3203 24.3915 23.2931 24.7032 23.1568 24.9819C23.0205 25.2607 22.8297 25.4923 22.5844 25.6767C22.3392 25.8611 22.053 25.9671 21.7259 25.9947C21.3989 26.0222 21.0855 25.9427 20.7857 25.7562L13.9993 21.7815Z" fill="#1E624D"/>
</svg>
