<svg width="26" height="26" viewBox="0 0 26 26" fill="none" xmlns="http://www.w3.org/2000/svg">
<path d="M14.167 3.25L14.1673 2.25H14.167V3.25ZM15.167 4.25H16.167H15.167ZM15.167 5.73242H14.167C14.167 6.1748 14.4577 6.56461 14.8816 6.69085L15.167 5.73242ZM16.6064 6.32812L16.1302 7.20741C16.5191 7.4181 17.0003 7.34821 17.3132 7.03556L16.6064 6.32812ZM17.6553 5.28027L18.3621 5.98771L18.3621 5.98767L17.6553 5.28027ZM19.0693 5.28027L19.7764 4.57317L19.7762 4.57295L19.0693 5.28027ZM20.7197 6.93066L21.4271 6.2238L21.4268 6.22356L20.7197 6.93066ZM20.7197 8.34473L21.4262 9.05249L21.4271 9.05154L20.7197 8.34473ZM19.6709 9.3916L18.9645 8.68384C18.6509 8.99678 18.5806 9.4787 18.7918 9.86815L19.6709 9.3916ZM20.2676 10.833L19.3092 11.1184C19.4354 11.5423 19.8252 11.833 20.2676 11.833V10.833ZM21.75 10.833L21.75 9.83301H21.75V10.833ZM22.75 11.833H23.75V11.8327L22.75 11.833ZM22.75 14.167L23.75 14.1673V14.167H22.75ZM21.75 15.167V16.167H21.75L21.75 15.167ZM20.2676 15.167V14.167C19.8252 14.167 19.4354 14.4577 19.3092 14.8816L20.2676 15.167ZM19.6709 16.6064L18.7916 16.1301C18.5808 16.5192 18.6509 17.0006 18.9638 17.3136L19.6709 16.6064ZM20.7197 17.6553L21.4271 16.9485L21.4268 16.9482L20.7197 17.6553ZM20.7197 19.0693L21.4268 19.7764L21.4271 19.7762L20.7197 19.0693ZM19.0693 20.7197L19.7762 21.4271L19.7764 21.4268L19.0693 20.7197ZM17.6553 20.7197L16.9482 21.4268L16.9485 21.4271L17.6553 20.7197ZM16.6064 19.6709L17.3136 18.9638C17.0006 18.6509 16.5192 18.5808 16.1301 18.7916L16.6064 19.6709ZM15.167 20.2666L14.8816 19.3082C14.4576 19.4344 14.167 19.8242 14.167 20.2666H15.167ZM14.167 22.75V23.75H14.1673L14.167 22.75ZM11.833 22.75L11.8327 23.75H11.833V22.75ZM10.833 21.75H9.83301H10.833ZM10.833 20.2666H11.833C11.833 19.8242 11.5424 19.4344 11.1184 19.3082L10.833 20.2666ZM9.3916 19.6709L9.86815 18.7918C9.47886 18.5807 8.99713 18.6509 8.68417 18.9641L9.3916 19.6709ZM8.34473 20.7188L9.05183 21.4259L9.05216 21.4255L8.34473 20.7188ZM6.93066 20.7188L7.63777 20.0116L7.63756 20.0114L6.93066 20.7188ZM5.28027 19.0693L4.57294 19.7762L4.57338 19.7767L5.28027 19.0693ZM5.28027 17.6553L5.9877 18.3621L5.98771 18.3621L5.28027 17.6553ZM6.32812 16.6064L7.03556 17.3132C7.34821 17.0003 7.4181 16.5191 7.20741 16.1301L6.32812 16.6064ZM5.73242 15.167L6.69084 14.8816C6.56461 14.4577 6.1748 14.167 5.73242 14.167V15.167ZM4.25 15.167L4.25 16.167H4.25V15.167ZM3.25 14.167H2.25L2.25 14.1673L3.25 14.167ZM3.25 11.833L2.25 11.8327V11.833H3.25ZM4.25 10.833L4.25 11.833H4.25V10.833ZM5.73242 10.833V11.833C6.1748 11.833 6.56461 11.5423 6.69084 11.1184L5.73242 10.833ZM6.32812 9.39258L7.20736 9.86897C7.4182 9.47985 7.34818 8.99842 7.03523 8.68547L6.32812 9.39258ZM5.28027 8.34473L4.57284 9.05151L4.57317 9.05183L5.28027 8.34473ZM5.28027 6.93066L4.57338 6.22335L4.57294 6.22378L5.28027 6.93066ZM6.93066 5.28125L7.63756 5.98857L7.63777 5.98836L6.93066 5.28125ZM9.3916 6.32812L8.68449 7.03523C8.99747 7.34821 9.47896 7.41821 9.8681 7.2073L9.3916 6.32812ZM10.833 5.73242L11.1184 6.69084C11.5423 6.56461 11.833 6.1748 11.833 5.73242H10.833ZM11.833 3.25V2.25L11.8327 2.25L11.833 3.25ZM14.167 3.25L14.1667 4.25L14.167 4.25H15.167H16.167C16.167 3.14523 15.2712 2.25034 14.1673 2.25L14.167 3.25ZM15.167 4.25H14.167V5.73242H15.167H16.167V4.25H15.167ZM15.167 5.73242L14.8816 6.69085C15.3195 6.82122 15.7374 6.99468 16.1302 7.20741L16.6064 6.32812L17.0827 5.44884C16.5678 5.16989 16.0218 4.94355 15.4523 4.774L15.167 5.73242ZM16.6064 6.32812L17.3132 7.03556L18.3621 5.98771L17.6553 5.28027L16.9485 4.57284L15.8997 5.62069L16.6064 6.32812ZM17.6553 5.28027L18.3621 5.98767L18.3625 5.9876L19.0693 5.28027L19.7762 4.57295C18.9952 3.79244 17.7293 3.79267 16.9485 4.57287L17.6553 5.28027ZM19.0693 5.28027L18.3622 5.98738L20.0126 7.63777L20.7197 6.93066L21.4268 6.22356L19.7764 4.57317L19.0693 5.28027ZM20.7197 6.93066L20.0124 7.63753L20.0123 7.63792L20.7197 8.34473L21.4271 9.05154C22.2073 8.27067 22.2075 7.00476 21.4271 6.2238L20.7197 6.93066ZM20.7197 8.34473L20.0133 7.63696L18.9645 8.68384L19.6709 9.3916L20.3773 10.0994L21.4262 9.05249L20.7197 8.34473ZM19.6709 9.3916L18.7918 9.86815C19.0049 10.2613 19.1786 10.6798 19.3092 11.1184L20.2676 10.833L21.226 10.5477C21.0562 9.97745 20.8296 9.43073 20.55 8.91505L19.6709 9.3916ZM20.2676 10.833V11.833H21.75V10.833V9.83301H20.2676V10.833ZM21.75 10.833L21.75 11.833L21.75 11.8333L22.75 11.833L23.75 11.8327C23.7496 10.7288 22.8548 9.83301 21.75 9.83301L21.75 10.833ZM22.75 11.833H21.75V14.167H22.75H23.75V11.833H22.75ZM22.75 14.167L21.75 14.1667L21.75 14.167L21.75 15.167L21.75 16.167C22.8548 16.167 23.7496 15.2712 23.75 14.1673L22.75 14.167ZM21.75 15.167V14.167H20.2676V15.167V16.167H21.75V15.167ZM20.2676 15.167L19.3092 14.8816C19.1791 15.3186 19.005 15.7363 18.7916 16.1301L19.6709 16.6064L20.5502 17.0828C20.8287 16.5687 21.0561 16.0231 21.226 15.4523L20.2676 15.167ZM19.6709 16.6064L18.9638 17.3136L20.0126 18.3624L20.7197 17.6553L21.4268 16.9482L20.378 15.8993L19.6709 16.6064ZM20.7197 17.6553L20.0123 18.3621L20.0124 18.3625L20.7197 19.0693L21.4271 19.7762C22.2075 18.9952 22.2073 17.7293 21.4271 16.9485L20.7197 17.6553ZM20.7197 19.0693L20.0126 18.3622L18.3622 20.0126L19.0693 20.7197L19.7764 21.4268L21.4268 19.7764L20.7197 19.0693ZM19.0693 20.7197L18.3625 20.0124L18.3621 20.0123L17.6553 20.7197L16.9485 21.4271C17.7293 22.2073 18.9952 22.2075 19.7762 21.4271L19.0693 20.7197ZM17.6553 20.7197L18.3624 20.0126L17.3136 18.9638L16.6064 19.6709L15.8993 20.378L16.9482 21.4268L17.6553 20.7197ZM16.6064 19.6709L16.1301 18.7916C15.7374 19.0044 15.3196 19.1778 14.8816 19.3082L15.167 20.2666L15.4524 21.225C16.0218 21.0554 16.5677 20.8292 17.0828 20.5502L16.6064 19.6709ZM15.167 20.2666H14.167V21.75H15.167H16.167V20.2666H15.167ZM15.167 21.75H14.167H14.1667L14.167 22.75L14.1673 23.75C15.2712 23.7497 16.167 22.8548 16.167 21.75H15.167ZM14.167 22.75V21.75H11.833V22.75V23.75H14.167V22.75ZM11.833 22.75L11.8333 21.75H11.833H10.833H9.83301C9.83301 22.8548 10.7289 23.7496 11.8327 23.75L11.833 22.75ZM10.833 21.75H11.833V20.2666H10.833H9.83301V21.75H10.833ZM10.833 20.2666L11.1184 19.3082C10.6787 19.1773 10.2602 19.0042 9.86815 18.7918L9.3916 19.6709L8.91505 20.55C9.43169 20.8301 9.97869 21.0556 10.5476 21.225L10.833 20.2666ZM9.3916 19.6709L8.68417 18.9641L7.63729 20.012L8.34473 20.7188L9.05216 21.4255L10.099 20.3777L9.3916 19.6709ZM8.34473 20.7188L7.63762 20.0116H7.63777L6.93066 20.7188L6.22356 21.4259C7.00461 22.2069 8.27078 22.2069 9.05183 21.4259L8.34473 20.7188ZM6.93066 20.7188L7.63756 20.0114L5.98717 18.362L5.28027 19.0693L4.57338 19.7767L6.22377 21.4261L6.93066 20.7188ZM5.28027 19.0693L5.9876 18.3625L5.9877 18.3621L5.28027 17.6553L4.57284 16.9485C3.79273 17.7293 3.79243 18.9952 4.57294 19.7762L5.28027 19.0693ZM5.28027 17.6553L5.98771 18.3621L7.03556 17.3132L6.32812 16.6064L5.62069 15.8997L4.57284 16.9485L5.28027 17.6553ZM6.32812 16.6064L7.20741 16.1301C6.99468 15.7374 6.82122 15.3195 6.69084 14.8816L5.73242 15.167L4.774 15.4523C4.94355 16.0218 5.16989 16.5678 5.44884 17.0827L6.32812 16.6064ZM5.73242 15.167V14.167H4.25V15.167V16.167H5.73242V15.167ZM4.25 15.167V14.167L4.25 14.1667L3.25 14.167L2.25 14.1673C2.25035 15.2712 3.14522 16.167 4.25 16.167L4.25 15.167ZM3.25 14.167H4.25V11.833H3.25H2.25V14.167H3.25ZM3.25 11.833L4.25 11.8333V11.833L4.25 10.833V9.83301C3.14522 9.83301 2.25035 10.7288 2.25 11.8327L3.25 11.833ZM4.25 10.833V11.833H5.73242V10.833V9.83301H4.25V10.833ZM5.73242 10.833L6.69084 11.1184C6.82146 10.6797 6.99474 10.2614 7.20736 9.86897L6.32812 9.39258L5.44889 8.91618C5.16945 9.43192 4.94348 9.97843 4.774 10.5477L5.73242 10.833ZM6.32812 9.39258L7.03523 8.68547L5.98738 7.63762L5.28027 8.34473L4.57317 9.05183L5.62102 10.0997L6.32812 9.39258ZM5.28027 8.34473L5.9877 7.63794L5.98761 7.63755L5.28027 6.93066L4.57294 6.22378C3.79244 7.00479 3.79273 8.27068 4.57284 9.05151L5.28027 8.34473ZM5.28027 6.93066L5.98717 7.63798L7.63756 5.98857L6.93066 5.28125L6.22377 4.57393L4.57338 6.22335L5.28027 6.93066ZM6.93066 5.28125L7.63777 5.98836H7.63762L8.34473 5.28125L9.05183 4.57414C8.27078 3.79309 7.00461 3.79309 6.22356 4.57414L6.93066 5.28125ZM8.34473 5.28125L7.63762 5.98836L8.68449 7.03523L9.3916 6.32812L10.0987 5.62102L9.05183 4.57414L8.34473 5.28125ZM9.3916 6.32812L9.8681 7.2073C10.2602 6.99481 10.6788 6.82171 11.1184 6.69084L10.833 5.73242L10.5477 4.774C9.97869 4.9434 9.43161 5.16901 8.9151 5.44895L9.3916 6.32812ZM10.833 5.73242H11.833V4.25H10.833H9.83301V5.73242H10.833ZM10.833 4.25H11.833L11.8333 4.25L11.833 3.25L11.8327 2.25C10.7289 2.25037 9.83301 3.14521 9.83301 4.25H10.833ZM11.833 3.25V4.25H14.167V3.25V2.25H11.833V3.25Z" fill="#929292"/>
<circle cx="13" cy="13" r="3.25" stroke="#929292" stroke-width="2" stroke-linecap="round" stroke-linejoin="round"/>
</svg>
