<svg width="22" height="20" viewBox="0 0 22 20" fill="none" xmlns="http://www.w3.org/2000/svg">
<path d="M10.9995 16.755L5.66732 19.8125C5.43176 19.9551 5.1855 20.0163 4.92853 19.9959C4.67156 19.9755 4.44671 19.894 4.25398 19.7513C4.06126 19.6086 3.91136 19.4305 3.80429 19.2169C3.69721 19.0032 3.6758 18.7635 3.74004 18.4977L5.15338 12.7191L0.431551 8.83611C0.217409 8.65266 0.083784 8.44353 0.0306768 8.20872C-0.0224303 7.9739 -0.00658392 7.7448 0.0782163 7.5214C0.163016 7.298 0.291502 7.11455 0.463672 6.97105C0.635842 6.82755 0.871398 6.73583 1.17034 6.69588L7.40187 6.17611L9.81096 0.733795C9.91804 0.489197 10.0842 0.305748 10.3095 0.183449C10.5348 0.0611494 10.7648 0 10.9995 0C11.2342 0 11.4641 0.0611494 11.6894 0.183449C11.9147 0.305748 12.0809 0.489197 12.1879 0.733795L14.597 6.17611L20.8286 6.69588C21.1284 6.73664 21.3639 6.82837 21.5352 6.97105C21.7065 7.11373 21.835 7.29718 21.9207 7.5214C22.0063 7.74561 22.0226 7.97513 21.9695 8.20994C21.9164 8.44476 21.7824 8.65348 21.5674 8.83611L16.8455 12.7191L18.2589 18.4977C18.3231 18.7627 18.3017 19.0024 18.1946 19.2169C18.0875 19.4313 17.9376 19.6094 17.7449 19.7513C17.5522 19.8932 17.3273 19.9747 17.0704 19.9959C16.8134 20.0171 16.5671 19.956 16.3316 19.8125L10.9995 16.755Z" fill="#FFD738"/>
</svg>
