<svg width="234" height="248" viewBox="0 0 234 248" fill="none" xmlns="http://www.w3.org/2000/svg">
<path d="M63.1006 128.997C63.1006 128.997 41.1099 116.206 36.4732 132.36C36.4732 132.36 34.23 141.993 48.1172 144.834C63.7185 148.975 63.1041 128.983 63.1041 128.983L63.1006 128.997Z" fill="#C1E7BD"/>
<mask id="mask0_125_2820" style="mask-type:luminance" maskUnits="userSpaceOnUse" x="36" y="124" width="28" height="22">
<path d="M63.1009 128.997C63.1009 128.997 41.1102 116.206 36.4735 132.36C36.4735 132.36 33.8883 141.652 48.1175 144.834C63.7188 148.975 63.1044 128.984 63.1044 128.984L63.1009 128.997Z" fill="white"/>
</mask>
<g mask="url(#mask0_125_2820)">
<path d="M58.2832 126.42C58.2832 126.42 49.4781 136.761 44.9676 150.072" stroke="#A0CC9C" stroke-width="2.05285" stroke-miterlimit="10" stroke-linecap="round"/>
</g>
<path d="M185.153 98.0915C187.239 96.9615 197.917 83.7758 184.629 68.0305C176.853 58.8074 166.152 54.9496 161.797 53.8985C157.646 45.7258 151.027 38.2593 142.198 32.5954C118.117 17.1821 86.8415 21.0243 72.3452 41.1974C68.0084 47.2302 65.6726 54.0447 65.1683 61.0588C54.892 60.6376 44.9381 64.7763 39.0476 72.9639C34.991 78.6147 33.5402 85.2508 34.4098 91.7402C33.0521 94.5126 30.5552 114.039 53.0371 115.941C58.7337 118.632 64.8699 119.695 70.7523 119.247C71.0543 119.277 71.3407 119.314 71.6428 119.344C75.0647 123.802 79.6481 128.037 85.2053 131.591C99.6872 140.869 116.221 142.671 125.951 136.901C128.814 143.465 133.207 150.525 139.957 156.097C150.428 164.747 160.48 170.733 171.357 167.34C179.509 162.864 179.509 159.1 179.509 153.093C187.78 152.197 195.068 148.59 199.575 142.37C216.378 119.178 186.018 98.6229 185.163 98.1344L185.153 98.0915Z" fill="#088760"/>
<path d="M104.209 93.6465C104.209 93.6465 28.7279 121.032 43.3542 192.135C43.3542 192.135 48.6514 214.737 85.1969 213.937C85.1969 213.937 95.4665 230.906 104.653 223.653C104.653 223.653 109.101 219.36 106.01 214.434C106.01 214.434 113.701 211.868 114.433 201.115C115.714 182.031 122.585 167.35 126.432 169.586C130.279 171.822 140.699 184.278 146.095 177.626C146.095 177.626 152.439 170.61 147.665 164.344C144.819 160.601 136.383 151.98 136.383 151.98L156.355 147.493L142.525 112.795L104.192 93.6561L104.209 93.6465Z" fill="#C1E7BD"/>
<path d="M101.309 153.758C104.486 154.601 107.745 152.709 108.589 149.532C109.432 146.355 107.54 143.096 104.363 142.252C101.186 141.409 97.9267 143.301 97.0835 146.478C96.2402 149.655 98.1321 152.914 101.309 153.758Z" fill="#E3FFD4"/>
<path d="M78.8764 145.053C81.6356 145.785 84.4662 144.142 85.1985 141.383C85.9309 138.624 84.2878 135.793 81.5285 135.061C78.7693 134.329 75.9388 135.972 75.2064 138.731C74.474 141.49 76.1171 144.321 78.8764 145.053Z" fill="#E3FFD4"/>
<path d="M100.122 144.387C101.794 142.707 102.301 140.502 101.255 139.46C100.209 138.419 98.0058 138.937 96.3337 140.617C94.6616 142.297 94.1541 144.503 95.2002 145.544C96.2462 146.585 98.4497 146.067 100.122 144.387Z" fill="#005138"/>
<path d="M87.8552 140.342C89.5273 138.662 90.0348 136.456 88.9888 135.415C87.9427 134.374 85.7392 134.892 84.0671 136.572C82.3951 138.252 81.8875 140.458 82.9336 141.499C83.9796 142.54 86.1831 142.022 87.8552 140.342Z" fill="#005138"/>
<path d="M93.7875 137.379C93.1483 137.209 92.5914 136.782 92.2568 136.149C91.6609 135.027 90.6628 132.738 90.6484 130.109C90.6434 129.549 91.0985 129.097 91.6583 129.092C92.2182 129.087 92.6699 129.542 92.6749 130.102C92.6923 132.299 93.5448 134.243 94.0545 135.216C94.1372 135.377 94.3095 135.465 94.4572 135.434C98.0609 134.799 102.152 131.905 102.189 131.873C102.639 131.546 103.279 131.66 103.606 132.11C103.933 132.56 103.819 133.2 103.37 133.527C103.181 133.659 98.8612 136.729 94.8047 137.44C94.4536 137.5 94.1101 137.479 93.784 137.392L93.7875 137.379Z" fill="#005138"/>
<path d="M92.6451 146.209C91.2658 146.513 89.0013 146.68 86.4345 145.565C85.7578 145.274 84.9848 145.977 85.3125 146.636C86.3974 148.809 87.4719 153.283 87.9272 155.303C88.0224 155.733 88.5738 155.866 88.8568 155.536C90.1556 154.01 92.8605 150.553 93.6548 147.245C93.8045 146.628 93.2561 146.064 92.6321 146.205L92.6451 146.209Z" fill="#005138"/>
<path d="M39.9606 197.029C39.9606 197.029 47.3291 216.984 59.157 214.929C70.985 212.874 55.9931 192.18 53.7869 189.444C45.9488 179.782 34.7579 186.223 39.9736 197.033L39.9606 197.029Z" fill="#C1E7BD"/>
<path d="M44.1854 200.143C44.1854 200.143 48.2291 211.094 54.7201 209.966C61.2112 208.838 52.9838 197.482 51.7731 195.98C47.4716 190.678 41.3302 194.212 44.1925 200.145L44.1854 200.143Z" fill="#A6CEA2"/>
<path d="M100.617 105.86C100.617 105.86 110.444 125.392 132.428 123.003C132.428 123.003 117.3 145.225 136.996 152.142C136.996 152.142 139.722 149.026 136.728 152.099L158.603 162.276L165.191 123.46L131.267 88.0791C131.267 88.0791 103.926 84.4526 98.4155 85.1684C92.9054 85.8842 60.7435 113.15 60.7435 113.15L61.4223 123.482C61.4223 123.482 69.8126 113.595 74.1094 111.14C74.1094 111.14 90.8447 118.584 100.621 105.847L100.617 105.86Z" fill="#088760"/>
<path d="M88.17 213.204C88.17 213.204 94.3306 215.719 101.487 212.535" stroke="#A0CC9C" stroke-width="2.05285" stroke-miterlimit="10" stroke-linecap="round"/>
<path d="M45.3016 183.798C45.3016 183.798 55.3606 180.463 61.7282 199.454" stroke="#A0CC9C" stroke-width="2.05285" stroke-miterlimit="10" stroke-linecap="round"/>
<path d="M122.595 172.66L126.435 178.399L148.158 163.862L144.318 158.123L122.595 172.66Z" fill="#FFE629"/>
<path d="M144.311 158.127L148.151 163.866L150.313 159.778C150.795 158.868 150.095 157.775 149.065 157.833L144.313 158.115L144.311 158.127Z" fill="#FFF7D3"/>
<mask id="mask1_125_2820" style="mask-type:luminance" maskUnits="userSpaceOnUse" x="144" y="157" width="7" height="7">
<path d="M144.311 158.127L148.151 163.866L150.313 159.778C150.795 158.868 150.095 157.775 149.065 157.833L144.313 158.115L144.311 158.127Z" fill="white"/>
</mask>
<g mask="url(#mask1_125_2820)">
<path d="M146.178 156.396L150.078 162.224L154.081 159.545L150.182 153.717L146.178 156.396Z" fill="#4A3500"/>
</g>
<path d="M122.595 172.66L126.435 178.399L128.311 177.143L124.471 171.404L122.595 172.66Z" fill="#748972"/>
<path d="M121.414 179.684L119.487 176.803C118.958 176.013 119.17 174.94 119.961 174.411L122.59 172.652L126.435 178.398L123.806 180.158C123.016 180.686 121.943 180.474 121.414 179.684Z" fill="#FF7300"/>
</svg>
