<svg width="31" height="28" viewBox="0 0 31 28" fill="none" xmlns="http://www.w3.org/2000/svg">
<path d="M15.4992 23.457L7.98577 27.7374C7.65385 27.9372 7.30684 28.0228 6.94475 27.9943C6.58265 27.9657 6.26582 27.8516 5.99425 27.6518C5.72268 27.4521 5.51146 27.2027 5.36058 26.9036C5.20971 26.6045 5.17954 26.269 5.27006 25.8968L7.26158 17.8068L0.608094 12.3706C0.306349 12.1137 0.118059 11.8209 0.0432265 11.4922C-0.0316064 11.1635 -0.00927734 10.8427 0.110214 10.53C0.229705 10.2172 0.410752 9.96037 0.653355 9.75947C0.895959 9.55857 1.22788 9.43016 1.64912 9.37423L10.4299 8.64655L13.8245 1.02731C13.9754 0.684875 14.2096 0.428047 14.527 0.256828C14.8444 0.0856091 15.1685 0 15.4992 0C15.8299 0 16.154 0.0856091 16.4715 0.256828C16.7889 0.428047 17.023 0.684875 17.1739 1.02731L20.5686 8.64655L29.3493 9.37423C29.7718 9.4313 30.1037 9.55972 30.3451 9.75947C30.5865 9.95923 30.7675 10.2161 30.8882 10.53C31.0089 10.8439 31.0319 11.1652 30.957 11.4939C30.8822 11.8227 30.6933 12.1149 30.3904 12.3706L23.7369 17.8068L25.7284 25.8968C25.8189 26.2678 25.7887 26.6034 25.6379 26.9036C25.487 27.2038 25.2758 27.4532 25.0042 27.6518C24.7326 27.8504 24.4158 27.9646 24.0537 27.9943C23.6916 28.0239 23.3446 27.9383 23.0127 27.7374L15.4992 23.457Z" fill="#088760"/>
</svg>
