<svg width="36" height="56" viewBox="0 0 36 56" fill="none" xmlns="http://www.w3.org/2000/svg">
<path d="M8.3945 15.1148C7.48978 16.0408 6.98952 17.2861 7.00017 18.5846L7.04274 24.4813C7.04274 25.4073 7.79845 26.1523 8.71381 26.1523L14.7488 26.1949C16.0793 26.1949 17.3565 25.6734 18.2932 24.7261L28.2238 14.6039L18.4209 4.87549L8.3945 15.1254V15.1148Z" fill="#1E624D"/>
<path d="M31.8321 5.21577L27.6279 1.12858C26.0526 -0.40412 23.5407 -0.372189 22.008 1.20308L20.124 3.1296L29.9376 12.8686L31.896 10.8676C33.4393 9.29233 33.4074 6.75912 31.8321 5.22642V5.21577Z" fill="#1E624D"/>
<path d="M7.03373 41.7646C7.03373 43.7359 9.14005 45.5992 11.4624 46.0177L10.8683 47.0844C8.93752 46.6658 7.15525 45.3967 6.37214 43.6954C5.57551 45.3832 3.8 46.6523 1.86245 47.0844L1.29537 46.0177C3.59072 45.5857 5.68353 43.7359 5.68353 41.7646V40.8465H7.03373V41.7646ZM11.962 49.4878V50.5544H0.890308V49.4878H11.962ZM22.5569 40.0498V52.1747H21.2877V45.5722H18.8844V44.519H21.2877V40.0498H22.5569ZM18.6819 41.13V42.1697H14.3207V44.519H18.1688V45.5452H14.3207V48.2456C16.346 48.2388 17.7502 48.1916 19.357 47.908L19.492 48.9477C17.7367 49.2312 16.211 49.2987 13.9696 49.3122H13.0245V41.13H18.6819ZM34.07 40.0498V52.1747H32.7873V40.0498H34.07ZM30.6135 41.1705V42.2372H26.1173V48.1106C28.4127 48.1038 29.8777 48.0431 31.5857 47.7325L31.7207 48.7992C29.9114 49.1232 28.3317 49.2042 25.8203 49.2042H24.8211V41.1705H30.6135Z" fill="#1E624D"/>
</svg>
