<svg width="302" height="54" viewBox="0 0 302 54" fill="none" xmlns="http://www.w3.org/2000/svg">
<rect width="302" height="54" rx="10" fill="#D0D9D7"/>
<rect x="27" y="34.3247" width="21" height="11.166" rx="1" fill="#9BACA7"/>
<rect width="3" height="11.166" transform="matrix(-1 0 0 1 39 34.3247)" fill="#EAEAEA"/>
<rect x="143" y="6.91699" width="21" height="11.166" rx="1" fill="#9BACA7"/>
<rect width="3" height="11.166" transform="matrix(-1 0 0 1 155 6.91699)" fill="#EAEAEA"/>
<rect x="146" y="34.3247" width="12" height="11.166" rx="1" fill="#9BACA7"/>
<rect width="3" height="11.166" transform="matrix(-1 0 0 1 149 34.3247)" fill="#EAEAEA"/>
<rect x="88" y="6.91699" width="12" height="11.166" rx="1" fill="#9BACA7"/>
<rect width="3" height="11.166" transform="matrix(-1 0 0 1 91 6.91699)" fill="#EAEAEA"/>
<rect x="259" y="34.3247" width="12" height="11.166" rx="1" fill="#9BACA7"/>
<rect width="3" height="11.166" transform="matrix(-1 0 0 1 262 34.3247)" fill="#EAEAEA"/>
</svg>
