<svg width="275" height="60" viewBox="0 0 275 60" fill="none" xmlns="http://www.w3.org/2000/svg">
<mask id="path-1-inside-1_120_1870" fill="white">
<path d="M251.576 0C264.003 0 274.076 10.0736 274.076 22.5C274.076 34.9264 264.003 45 251.576 45H150.122L136.588 60L123.054 45H22.5C10.0736 45 0 34.9264 0 22.5C0 10.0736 10.0736 3.51641e-07 22.5 0H251.576Z"/>
</mask>
<path d="M251.576 0C264.003 0 274.076 10.0736 274.076 22.5C274.076 34.9264 264.003 45 251.576 45H150.122L136.588 60L123.054 45H22.5C10.0736 45 0 34.9264 0 22.5C0 10.0736 10.0736 3.51641e-07 22.5 0H251.576Z" fill="white"/>
<path d="M150.122 45V44H149.677L149.38 44.3301L150.122 45ZM136.588 60L135.845 60.6699L136.588 61.4928L137.33 60.6699L136.588 60ZM123.054 45L123.796 44.3301L123.498 44H123.054V45ZM22.5 45L22.5 46H22.5V45ZM22.5 0V-1V0ZM251.576 0V1C263.45 1 273.076 10.6259 273.076 22.5H274.076H275.076C275.076 9.52131 264.555 -1 251.576 -1V0ZM274.076 22.5H273.076C273.076 34.3741 263.45 44 251.576 44V45V46C264.555 46 275.076 35.4787 275.076 22.5H274.076ZM251.576 45V44H150.122V45V46H251.576V45ZM150.122 45L149.38 44.3301L135.845 59.3301L136.588 60L137.33 60.6699L150.865 45.6699L150.122 45ZM136.588 60L137.33 59.3301L123.796 44.3301L123.054 45L122.311 45.6699L135.845 60.6699L136.588 60ZM123.054 45V44H22.5V45V46H123.054V45ZM22.5 45L22.5 44C10.6259 44 1 34.3741 1 22.5H0H-1C-1 35.4787 9.52132 46 22.5 46L22.5 45ZM0 22.5H1C1 10.6259 10.6259 1 22.5 1V0V-1C9.52131 -1 -1 9.52131 -1 22.5H0ZM22.5 0V1H251.576V0V-1H22.5V0Z" fill="#C2C2C2" mask="url(#path-1-inside-1_120_1870)"/>
</svg>
