<svg width="18" height="27" viewBox="0 0 18 27" fill="none" xmlns="http://www.w3.org/2000/svg">
<path d="M8.51025 0.483173C8.88596 0.0482524 9.53591 0.0482524 9.91162 0.483173C11.9914 2.89087 17.9839 10.4202 17.9839 17.2439L17.9722 17.6951C17.737 22.3302 13.904 26.0163 9.21045 26.0164C4.51703 26.0163 0.684845 22.3301 0.449707 17.6951L0.437988 17.2439L0.441895 16.9236C0.623725 10.1859 6.46315 2.85294 8.51025 0.483173ZM6.28662 18.7049C5.47911 18.7049 4.82373 19.3602 4.82373 20.1677C4.82388 20.9751 5.47921 21.6297 6.28662 21.6297C7.09389 21.6295 7.74838 20.975 7.74854 20.1677C7.74854 19.3603 7.09399 18.705 6.28662 18.7049Z" fill="#6CA9D7"/>
</svg>
